<svg xmlns="http://www.w3.org/2000/svg" width="512" height="512" viewBox="0 0 512 512">
    <defs>
        <linearGradient id="bgGrad" x1="0%" y1="0%" x2="100%" y2="100%">
            <stop offset="0%" stop-color="#000428"/>
            <stop offset="100%" stop-color="#004e92"/>
        </linearGradient>
    </defs>
  
                   
                    <path id="path1-final" d="M120 100 L200 100 L200 380 C200 420 160 460 120 460 C80 460 40 420 40 380 C40 340 80 300 120 300 C140 300 160 320 160 340 Z" 
                          fill="#FF9800"/>
                    <path id="path2-final" d="M240 80 L320 80 L320 360 C320 400 280 440 240 440 C200 440 160 400 160 360 C160 320 200 280 240 280 C260 280 280 300 280 320 Z" 
                          fill="#0A84FF"/>
                    <path id="path3-final" d="M360 60 L440 60 L440 340 C440 380 400 420 360 420 C320 420 280 380 280 340 C280 300 320 260 360 260 C380 260 400 280 400 300 Z" 
                          fill="#EC407A"/>
            </svg>
        


