<svg xmlns="http://www.w3.org/2000/svg" width="512" height="512" viewBox="0 0 512 512">
    <!-- 
      Favicon for https://www.chordvisa.com
      Design: Three abstract paths representing musical harmony
    -->
    <path d="M100 80 L200 80 L200 400 C200 440 140 480 100 480 C60 480 20 440 20 400 C20 360 60 320 100 320 C120 320 140 340 140 360 Z" fill="#FB7185"/>
    <path d="M240 60 L340 60 L340 380 C340 420 280 460 240 460 C200 460 160 420 160 380 C160 340 200 300 240 300 C260 300 280 320 280 340 Z" fill="#0EA5E9"/>
    <path d="M360 40 L460 40 L460 360 C460 400 400 440 360 440 C320 440 280 400 280 360 C280 320 320 280 360 280 C380 280 400 300 400 320 Z" fill="#A855F7"/>
    
    <!-- 
      chordvisa.com - Music Chords
      Created: 2025
      SVG Favicon v3.0 - Optimized positioning
    -->
</svg>
